<?xml version="1.0" encoding="utf-8"?><svg xmlns="http://www.w3.org/2000/svg" xmlns:xlink="http://www.w3.org/1999/xlink" width="786" height="648" preserveAspectRatio="xMidYMid" viewBox="0 0 786 648" style="z-index:1;margin-right:-1.6px;display:block;background-repeat-y:initial;background-repeat-x:initial;background-color:rgb(255, 255, 255);animation-play-state:paused" ><g transform="translate(393,324) scale(1,1) translate(-393,-324)" style="transform:matrix(1, 0, 0, 1, 0, 0);animation-play-state:paused" ><linearGradient id="lg-0.6343998369573063" x1="0" x2="1" y1="0" y2="0" style="animation-play-state:paused" ><stop stop-color="#ff00ff" offset="0" style="animation-play-state:paused" ></stop>

  
<stop stop-color="#00ffff" offset="1" style="animation-play-state:paused" ></stop></linearGradient>
<path d="M 0 0 L 0 642.875 Q 78.6 587.513 157.2 551.585 T 314.4 493.598 T 471.6 339.732 T 628.8 373.98 T 786 287.524 L 786 0 Z" fill="url(#lg-0.6343998369573063)" opacity="0.4" style="opacity:0.4;animation-play-state:paused" ></path>
<path d="M 0 0 L 0 548.32 Q 78.6 558.499 157.2 533.801 T 314.4 497.323 T 471.6 392.153 T 628.8 346.979 T 786 296.596 L 786 0 Z" fill="url(#lg-0.6343998369573063)" opacity="0.4" style="opacity:0.4;animation-play-state:paused" ></path>
<path d="M 0 0 L 0 547.594 Q 78.6 602.906 157.2 574.257 T 314.4 447.46 T 471.6 343.067 T 628.8 285.742 T 786 255.744 L 786 0 Z" fill="url(#lg-0.6343998369573063)" opacity="0.4" style="opacity:0.4;animation-play-state:paused" ></path>
<path d="M 0 0 L 0 574.65 Q 78.6 536.171 157.2 495.596 T 314.4 478.214 T 471.6 432.651 T 628.8 337.92 T 786 267.791 L 786 0 Z" fill="url(#lg-0.6343998369573063)" opacity="0.4" style="opacity:0.4;animation-play-state:paused" ></path>
<path d="M 0 0 L 0 548.374 Q 78.6 542.496 157.2 514.115 T 314.4 502.279 T 471.6 407.278 T 628.8 303.796 T 786 342.555 L 786 0 Z" fill="url(#lg-0.6343998369573063)" opacity="0.4" style="opacity:0.4;animation-play-state:paused" ></path></g></svg>